<svg width="17.000000" height="18.000000" viewBox="0 0 17 18" fill="none" xmlns="http://www.w3.org/2000/svg" xmlns:xlink="http://www.w3.org/1999/xlink">
	<desc>
			Created with Pixso.
	</desc>
	<path d="M15 10.5C15 14.6422 11.6422 18 7.5 18C3.35779 18 0 14.6422 0 10.5C0 6.35785 3.35779 3 7.5 3C11.6422 3 15 6.35785 15 10.5Z" fill-rule="evenodd" fill="#32A8FD"/>
	<path d="M17 5.5C17 8.5376 14.5375 11 11.5 11C8.46249 11 6 8.5376 6 5.5C6 2.4624 8.46249 0 11.5 0C14.5375 0 17 2.4624 17 5.5Z" fill-rule="evenodd" fill="#32DCE5"/>
	<path d="M6.67325 3.04504C6.94473 3.01529 7.22058 3 7.5 3C11.455 3 14.6949 6.06125 14.9797 9.94351C14.0317 10.7188 12.8202 11.184 11.5 11.184C8.46243 11.184 6 8.72153 6 5.68396C6 4.72769 6.24405 3.82843 6.67325 3.04504Z" fill-rule="evenodd" fill="#003ADA"/>
	<defs/>
</svg>
